<svg height="512" viewBox="0 0 128 128" width="512" xmlns="http://www.w3.org/2000/svg"><g id="Circle_Grid" data-name="Circle Grid"><circle cx="64" cy="64" fill="#69b0ee" r="64"/></g><g id="icon"><path d="m95.732 23h-49.714v82h49.714a3 3 0 0 0 3-3v-76a3 3 0 0 0 -3-3z" fill="#eeefee"/><path d="m36.041 23a3 3 0 0 0 -3 3v76a3 3 0 0 0 3 3h12.044v-82z" fill="#62667c"/><g fill="#dbd8dd"><path d="m35.4 31.148a2.364 2.364 0 1 1 -2.357-2.37v-1.4a3.773 3.773 0 1 0 3.767 3.767z"/><path d="m35.4 40.451a2.364 2.364 0 1 1 -2.357-2.37v-1.4a3.773 3.773 0 1 0 3.767 3.767z"/><path d="m35.4 49.753a2.364 2.364 0 1 1 -2.357-2.37v-1.4a3.773 3.773 0 1 0 3.767 3.767z"/><path d="m35.4 59.056a2.364 2.364 0 1 1 -2.357-2.37v-1.4a3.773 3.773 0 1 0 3.767 3.767z"/><path d="m35.4 68.358a2.364 2.364 0 1 1 -2.357-2.37v-1.4a3.773 3.773 0 1 0 3.767 3.767z"/><path d="m35.4 77.661a2.364 2.364 0 1 1 -2.357-2.37v-1.4a3.773 3.773 0 1 0 3.767 3.767z"/><path d="m35.4 86.963a2.364 2.364 0 1 1 -2.357-2.37v-1.393a3.773 3.773 0 1 0 3.767 3.767z"/><path d="m35.4 96.266a2.364 2.364 0 1 1 -2.357-2.37v-1.396a3.773 3.773 0 1 0 3.767 3.767z"/><path d="m53.671 77.131h38.477v2.22h-38.477z"/><path d="m53.671 84.147h38.477v2.22h-38.477z"/><path d="m60.319 91.164h25.181v2.22h-25.181z"/></g><path d="m84.793 59.212v5.24h-3.431v.006l-.258-.006h-16.377l-.253.006v-.006h-3.448v-5.24a5.071 5.071 0 0 1 1.185-2.673.564.564 0 0 1 .079-.09 4.786 4.786 0 0 1 1.9-1.292c1.623-.6 3.942-1.382 5.1-1.775l.646-.213v-.869a5.638 5.638 0 0 1 -.826-.831 4.257 4.257 0 0 1 -.994-2.28c-1.028-.034-1.6-2.089-1.258-2.712a.47.47 0 0 1 .264-.23 8.927 8.927 0 0 1 -.359-3.493 6.234 6.234 0 0 1 1.437-3.462.517.517 0 0 1 .567-.146h.011a.546.546 0 0 0 .573-.09 5.993 5.993 0 0 1 3.016-1.511 7.135 7.135 0 0 1 4.733 1.275 5.7 5.7 0 0 1 1.926 3.937 8.881 8.881 0 0 1 -.359 3.482.507.507 0 0 1 .3.241c.343.623-.23 2.679-1.258 2.712a4.174 4.174 0 0 1 -.994 2.28 5.8 5.8 0 0 1 -.837.842v.837a.017.017 0 0 1 .011.006c.022.006.067.022.146.051a.427.427 0 0 1 .1.034c.1.034.236.079.4.135 1.14.382 3.454 1.174 5.094 1.78a4.886 4.886 0 0 1 1.915 1.292.338.338 0 0 0 .045.045.151.151 0 0 1 .039.045 4.887 4.887 0 0 1 1.165 2.673z" fill="#ef5261"/></g></svg>