<?xml version="1.0" encoding="iso-8859-1"?>
<!-- Generator: Adobe Illustrator 19.0.0, SVG Export Plug-In . SVG Version: 6.00 Build 0)  -->
<svg version="1.1" id="Layer_1" xmlns="http://www.w3.org/2000/svg" xmlns:xlink="http://www.w3.org/1999/xlink" x="0px" y="0px"
	 viewBox="0 0 480 480" style="enable-background:new 0 0 480 480;" xml:space="preserve">
<rect x="360" y="243.914" style="fill:#2FB4C2;" width="72" height="32"/>
<g>
	<polygon style="fill:#FFF8EF;" points="332,70.314 378.4,155.914 120.8,155.914 	"/>
	<path style="fill:#FFF8EF;" d="M200,243.914v104.8l-41.6-53.6c-1.6-2.4-4-3.2-6.4-3.2s-4.8,1.6-6.4,4l-22.4,32.8l-20-40
		c-1.6-2.4-4-4-6.4-4s-5.6,0.8-7.2,3.2l-41.6,58.4v-102.4H200z M192,267.914c0-8.8-7.2-16-16-16s-16,7.2-16,16s7.2,16,16,16
		S192,276.714,192,267.914z"/>
</g>
<path style="fill:#42210B;" d="M480,163.914v288c0,4-4,8-8,8H8c-4,0-8-4-8-8v-288c0-4,4-8,8-8h6.4l326.4-135.2c4-1.6,8,0,9.6,3.2
	l78.4,132H472C476,155.914,480,159.914,480,163.914z M464,443.914v-22.4l-31.2,22.4H464z M464,403.914v-192H16v192H464z
	 M464,195.914v-22.4l-31.2,22.4H464z M405.6,195.914l33.6-24H388l-33.6,24H405.6z M405.6,443.914l33.6-24h-52l-32.8,24H405.6z
	 M410.4,155.914l-69.6-117.6L56,155.914h22.4l254.4-103.2c4-1.6,8,0,10.4,4l53.6,99.2H410.4z M378.4,155.914l-46.4-85.6l-211.2,85.6
	H378.4z M327.2,195.914l33.6-24h-51.2l-33.6,24H327.2z M327.2,443.914l32.8-24h-52.8l-32,24H327.2z M248.8,195.914l33.6-24h-51.2
	l-33.6,24H248.8z M248.8,443.914l32-24h-53.6l-30.4,24H248.8z M170.4,195.914l33.6-24h-51.2l-33.6,24H170.4z M170.4,443.914l30.4-24
	h-54.4l-29.6,24H170.4z M92,195.914l33.6-24H74.4l-33.6,24H92z M91.2,443.914l29.6-24H66.4l-28.8,24H91.2z M16,194.314l31.2-22.4H16
	V194.314z M16,441.514l25.6-21.6H16V441.514z"/>
<polygon style="fill:#EE5656;" points="464,421.514 464,443.914 432.8,443.914 "/>
<path style="fill:#FFF8EF;" d="M464,211.914v192H16v-192H464z M448,283.914v-48c0-4-4-8-8-8h-88c-4,0-8,4-8,8v48c0,4,4,8,8,8h88
	C444,291.914,448,287.914,448,283.914z M440,371.914v-16H272v16H440z M440,323.914v-16H272v16H440z M248,387.914v-160h-16v160H248z
	 M216,371.914v-136c0-4-4-8-8-8H40c-4.8,0-8,4-8,8v136c0,4,3.2,8,8,8h168C212,379.914,216,375.914,216,371.914z"/>
<polygon style="fill:#EE5656;" points="464,173.514 464,195.914 432.8,195.914 "/>
<g>
	<path style="fill:#42210B;" d="M448,235.914v48c0,4-4,8-8,8h-88c-4,0-8-4-8-8v-48c0-4,4-8,8-8h88
		C444,227.914,448,231.914,448,235.914z M432,275.914v-32h-72v32H432z"/>
	<rect x="272" y="355.914" style="fill:#42210B;" width="168" height="16"/>
	<rect x="272" y="307.914" style="fill:#42210B;" width="168" height="16"/>
</g>
<g>
	<polygon style="fill:#2FB4C2;" points="439.2,171.914 405.6,195.914 354.4,195.914 388,171.914 	"/>
	<polygon style="fill:#2FB4C2;" points="439.2,419.914 405.6,443.914 354.4,443.914 386.4,419.914 	"/>
</g>
<path style="fill:#CC9966;" d="M340.8,38.314l69.6,117.6h-13.6l-53.6-100c-1.6-3.2-6.4-4.8-10.4-4l-254.4,104H56L340.8,38.314z"/>
<g>
	<polygon style="fill:#EE5656;" points="360.8,171.914 327.2,195.914 276,195.914 309.6,171.914 	"/>
	<polygon style="fill:#EE5656;" points="360,419.914 327.2,443.914 275.2,443.914 306.4,419.914 	"/>
</g>
<g>
	<polygon style="fill:#2FB4C2;" points="282.4,171.914 248.8,195.914 197.6,195.914 231.2,171.914 	"/>
	<polygon style="fill:#2FB4C2;" points="280,419.914 248.8,443.914 196,443.914 226.4,419.914 	"/>
</g>
<g>
	<rect x="232" y="227.914" style="fill:#42210B;" width="16" height="160"/>
	<path style="fill:#42210B;" d="M216,235.914v136c0,4-4,8-8,8H40c-4.8,0-8-4-8-8v-136c0-4,3.2-8,8-8h168
		C212,227.914,216,231.914,216,235.914z M200,348.714v-104.8H48v102.4l41.6-59.2c1.6-2.4,4-4,7.2-3.2c3.2,0,5.6,1.6,6.4,4l20,40
		l22.4-32.8c1.6-2.4,4-3.2,6.4-4c2.4,0,4.8,0.8,6.4,3.2L200,348.714z M192,363.914l-39.2-50.4l-20.8,31.2l9.6,19.2L192,363.914
		L192,363.914z M123.2,363.914l-28-56l-39.2,56H123.2z"/>
</g>
<g>
	<polygon style="fill:#EE5656;" points="204,171.914 170.4,195.914 119.2,195.914 152.8,171.914 	"/>
	<polygon style="fill:#EE5656;" points="200.8,419.914 170.4,443.914 116.8,443.914 147.2,419.914 	"/>
</g>
<polygon style="fill:#7AC943;" points="152.8,313.514 192,363.914 140.8,363.914 131.2,344.714 "/>
<circle style="fill:#42210B;" cx="176" cy="267.914" r="16"/>
<polygon style="fill:#2FB4C2;" points="125.6,171.914 92,195.914 40.8,195.914 74.4,171.914 "/>
<polygon style="fill:#7AC943;" points="95.2,307.914 123.2,363.914 55.2,363.914 "/>
<polygon style="fill:#2FB4C2;" points="121.6,419.914 91.2,443.914 38.4,443.914 67.2,419.914 "/>
<g>
	<polygon style="fill:#EE5656;" points="47.2,171.914 16,194.314 16,171.914 	"/>
	<polygon style="fill:#EE5656;" points="41.6,419.914 16,441.514 16,419.914 	"/>
</g>
<path style="fill:#D9CDC1;" d="M366.4,133.514l-34.4-63.2l-211.2,85.6l172.8-60c20.8-7.2,43.2,0,56.8,16.8L366.4,133.514z"/>
<g>
</g>
<g>
</g>
<g>
</g>
<g>
</g>
<g>
</g>
<g>
</g>
<g>
</g>
<g>
</g>
<g>
</g>
<g>
</g>
<g>
</g>
<g>
</g>
<g>
</g>
<g>
</g>
<g>
</g>
</svg>
