<?xml version="1.0" encoding="iso-8859-1"?>
<!-- Generator: Adobe Illustrator 19.0.0, SVG Export Plug-In . SVG Version: 6.00 Build 0)  -->
<svg version="1.1" id="Capa_1" xmlns="http://www.w3.org/2000/svg" xmlns:xlink="http://www.w3.org/1999/xlink" x="0px" y="0px"
	 viewBox="0 0 512 512" style="enable-background:new 0 0 512 512;" xml:space="preserve">
<circle style="fill:#FF9451;" cx="256" cy="256" r="256"/>
<path style="fill:#F7674F;" d="M512,256c0-7.395-0.332-14.711-0.946-21.946L428.5,151.5l-345,209l150.554,150.554
	C241.289,511.668,248.605,512,256,512C397.385,512,512,397.385,512,256z"/>
<rect x="83.5" y="151.5" style="fill:#FFFFFF;" width="345" height="209"/>
<rect x="256" y="151.5" style="fill:#E6E6E6;" width="172.5" height="209"/>
<rect x="108" y="171.5" style="fill:#35CCFF;" width="64.5" height="90.5"/>
<rect x="139" y="171.5" style="fill:#00BAFF;" width="33.5" height="90.5"/>
<rect x="294.33" y="171.5" style="fill:#B9EAFF;" width="108" height="30.17"/>
<rect x="346" y="171.5" style="fill:#35CCFF;" width="56.33" height="30.17"/>
<rect x="294.33" y="171.5" style="fill:#B9EAFF;" width="51.667" height="30.17"/>
<rect x="246" y="173.5" style="fill:#E0E0E0;" width="20" height="167"/>
<rect x="256" y="173.5" style="fill:#C0C0C0;" width="10" height="167"/>
<rect x="294.33" y="252" style="fill:#E0E0E0;" width="108" height="20"/>
<rect x="346" y="252" style="fill:#C0C0C0;" width="56.33" height="20"/>
<rect x="294.33" y="286.04" style="fill:#E0E0E0;" width="108" height="20"/>
<rect x="346" y="286.04" style="fill:#C0C0C0;" width="56.33" height="20"/>
<rect x="294.33" y="320.08" style="fill:#E0E0E0;" width="108" height="20"/>
<rect x="346" y="320.08" style="fill:#C0C0C0;" width="56.33" height="20"/>
<g>
</g>
<g>
</g>
<g>
</g>
<g>
</g>
<g>
</g>
<g>
</g>
<g>
</g>
<g>
</g>
<g>
</g>
<g>
</g>
<g>
</g>
<g>
</g>
<g>
</g>
<g>
</g>
<g>
</g>
</svg>
